<svg xmlns="http://www.w3.org/2000/svg" viewBox="0 0 153 153">
  <g id="Group_124" data-name="Group 124" transform="translate(-699 -1057)">
    <circle id="Oval" cx="75.5" cy="75.5" r="75.5" transform="translate(700 1058)" fill="#fff" stroke="#26355d"
      stroke-width="2" />
    <g id="Group_107" data-name="Group 107" transform="translate(730.54 1084.231)">
      <path id="Path_114" data-name="Path 114"
        d="M-1740-141.652c.28-.392.555-.788.84-1.177a27.735,27.735,0,0,0,4.938-12.427c.295-1.919.8-3.808,1.262-5.7.633-2.621,2.082-3.745,4.743-3.745q16.571,0,33.142.017a1.256,1.256,0,0,0,1.335-.814c1.558-3.194,3.162-6.365,4.754-9.541,1.5-2.988,3.015-3.68,6.224-2.879q6.879,1.718,13.762,3.422c.206.051.4.129.671.214l-.65,2.61c-.489-.1-.935-.169-1.372-.278q-6.787-1.689-13.572-3.389c-1.214-.3-1.69-.146-2.27.986-1.69,3.3-3.335,6.621-5.068,10.075l2.571.665a24.393,24.393,0,0,1,1.589-2.219,8.268,8.268,0,0,1,9.067-2.237,8.259,8.259,0,0,1,5.442,7.68c.009.59.143.837.762.989,7.049,1.735,14.087,3.51,21.13,5.271.147.037.3.043.539.074.032-.288.078-.548.086-.808.1-3.279.2-6.557.287-9.836.048-1.858-.2-2.16-2-2.61-4.792-1.2-9.584-2.405-14.486-3.636l.665-2.7,5.331,1.334c3.175.8,6.332,1.68,9.532,2.357,2.781.588,3.793,2.655,3.742,4.98-.085,3.867-.226,7.733-.306,11.6a6.516,6.516,0,0,0,.267,1.9c.6,2.078,1.278,4.132,1.864,6.213a3.3,3.3,0,0,1,.034,1.608c-1.262,5.162-2.56,10.315-3.857,15.468a4.169,4.169,0,0,1-5.408,3.261c-1.2-.286-2.4-.582-3.6-.9a4.167,4.167,0,0,1-3.171-5.314c.085-.356.167-.712.267-1.144l-21.232-5.3v1.055q0,5.8,0,11.6c0,3.1-1.666,4.772-4.745,4.783q-1.532.005-3.064,0c-3.043-.011-4.714-1.668-4.736-4.694,0-.245,0-.489,0-.83h-12.145v-2.814h21.839V-135.4c-3.041,2.074-6.369,1.085-9.669,1.383v-5.564h-32.786v5.552c-3.344-.271-6.685.7-9.73-1.375v6.881h21.842v2.8h-12.136c0,.492.014.911,0,1.328a4.2,4.2,0,0,1-4.33,4.255c-.958.023-1.922-.048-2.877.015-2.593.173-4.434-.8-5.321-3.33Zm50.551-7.765c-.853-3.807-1.654-7.488-2.513-11.155-.254-1.085-.718-1.343-1.894-1.343h-34.257c-1.444,0-1.842.29-2.18,1.708-.351,1.473-.656,2.956-.983,4.435-.459,2.077-.919,4.154-1.394,6.3h4.125c.068-.232.123-.409.173-.588a8.3,8.3,0,0,1,8.088-6.283,8.234,8.234,0,0,1,8.072,6.286c.2.731.6.639,1.081.639q10.258,0,20.517,0Zm30.581,9.089,1.349-5.459-29.92-7.466c.17.8.35,1.4.412,2.013.082.813.529,1.082,1.282,1.266,6,1.467,11.988,2.982,17.979,4.486,2.269.569,4.535,1.149,6.87,1.741-.237.933-.453,1.781-.685,2.688l-23.935-6c1.067,1.782,2.018,3.369,2.965,4.959.142.238.391.507.363.734-.126,1,.568,1.046,1.235,1.212q13.215,3.293,26.426,6.6c1.242.311,2.489.6,3.782.914.56-2.269,1.089-4.4,1.654-6.693C-1652.633-138.048-1655.615-139.856-1658.869-140.329Zm-27.146-2.117c-.735-1.234-1.409-2.3-2.009-3.4a1.359,1.359,0,0,0-1.384-.8c-4.733.032-9.467.017-14.2.017q-14.571,0-29.142.007c-.32,0-.81-.005-.935.181-.843,1.27-1.609,2.592-2.462,4Zm-3.118-18.407c.294,1.356.573,2.525.794,3.706a1.18,1.18,0,0,0,1.035,1.065q19.069,4.725,38.125,9.506a5.758,5.758,0,0,0,.725.083c-.394-1.3-.806-2.467-1.091-3.666a1.4,1.4,0,0,0-1.228-1.143q-15.114-3.744-30.217-7.527C-1683.65-159.492-1686.312-160.151-1689.133-160.852Zm13.705.543a5.42,5.42,0,0,0-4.378-5.378,5.315,5.315,0,0,0-5.894,2.817Zm-50.134,10.826h10.583a5.406,5.406,0,0,0-5.54-4.072A5.329,5.329,0,0,0-1725.561-149.484Zm40.515,23.841h-6.78c-.243,2.286.14,2.723,2.328,2.723h2.314C-1685.19-122.921-1684.623-123.635-1685.046-125.643Zm33.614-4.268-6.751-1.674c-.13.536-.25.918-.311,1.309a1.364,1.364,0,0,0,1.094,1.747c1.276.349,2.56.674,3.851.96a1.386,1.386,0,0,0,1.8-1.126C-1651.638-129.048-1651.561-129.409-1651.432-129.911Zm-78.83,4.275h-6.951c0,.436-.013.8,0,1.172a1.4,1.4,0,0,0,1.488,1.529q1.986.061,3.977,0a1.385,1.385,0,0,0,1.479-1.442C-1730.237-124.773-1730.262-125.174-1730.262-125.636Zm81.883-17.863-6.426-1.6c-.236.957-.443,1.8-.649,2.634C-1651.814-141.142-1649.7-141.442-1648.379-143.5Zm-43.478,6.579c3.831.394,5.879-.446,6.543-2.657h-6.543Zm-38.462-2.665h-6.486c.537,2.187,3.032,3.2,6.486,2.63Z"
        transform="translate(1740 195.811)" fill="#26355d" />
      <path id="Path_115" data-name="Path 115"
        d="M-1660.376-214.195c-.261,1.766-.5,3.342-.725,4.92-.252,1.743-.537,3.484-.721,5.235-.072.691-.318.869-.977.857-2.1-.037-4.2-.014-6.5-.014l6.087,8.707-2.273,1.6-9.2-13.138c2.551,0,4.921,0,7.291,0,.773,0,1.548-.01,2.32.029.539.028.735-.155.811-.714.586-4.318,1.212-8.632,1.826-12.946.021-.143.047-.286.106-.641l9.955,10.466,8.323-6v8.823h-2.647v-3.471l-6.017,4.33Z"
        transform="translate(1701.982 220.294)" fill="#26355d" />
      <path id="Path_116" data-name="Path 116" d="M-1703.205-76.42v-2.646h27.1v2.646Z"
        transform="translate(1718.584 138.095)" fill="#26355d" />
      <path id="Path_118" data-name="Path 118" d="M-1674.077-56.427v-2.638h2.7v2.638Z"
        transform="translate(1701.631 126.454)" fill="#26355d" />
    </g>
  </g>
</svg>