<svg xmlns="http://www.w3.org/2000/svg" viewBox="0 0 154 155">
  <g id="Group_126" data-name="Group 126" transform="translate(-1457 -1057)">
    <ellipse id="Oval" cx="76" cy="76.5" rx="76" ry="76.5" transform="translate(1458 1058)" fill="#fff" stroke="#26355d"
      stroke-width="2" />
    <g id="Group_109" data-name="Group 109" transform="translate(1503.133 1103.305)">
      <path id="Path_124" data-name="Path 124"
        d="M-1562.136-24.776a2.413,2.413,0,0,1-2.587,1.58c-4.662-.037-9.324,0-13.987-.032a3.174,3.174,0,0,1-1.561-.389,2.2,2.2,0,0,1,.146-3.829c.816-.455,1.687-.813,2.5-1.277a1.348,1.348,0,0,0,.568-.76c.229-.9.375-1.82.568-2.807h-21.949c0-.906,0-1.753,0-2.6a15.84,15.84,0,0,0-.7-4.809A14.209,14.209,0,0,0-1614-49.375a14.05,14.05,0,0,0-8.963,4.486c-.537.571-1.071,1.145-1.682,1.8V-79.7a8.177,8.177,0,0,1,4.5.767,13.1,13.1,0,0,1,2.726,1.921c4.8,4.491,9.561,9.029,14.335,13.552.1.1.209.193.365.337.141-.215.273-.408.4-.607q4.1-6.615,8.189-13.232a13.577,13.577,0,0,1,9.827-6.633c.635-.1,1.283-.12,1.969-.181v2c-.542.057-1.1.094-1.657.177a11.117,11.117,0,0,0-7.959,5.016c-1.734,2.632-3.348,5.343-4.993,8.032a.892.892,0,0,0-.032.709q1.541,3.552,3.144,7.077a1.018,1.018,0,0,0,.646.509c2.807.475,5.619.917,8.433,1.351a.71.71,0,0,0,.533-.162c2.961-2.939,5.91-5.89,8.92-8.9-3.451-1.472-4.278-4.287-3.929-7.7h-3.015v-2.022h2.933c.053-.418.077-.781.147-1.134a6.071,6.071,0,0,1,6.112-4.932,5.92,5.92,0,0,1,5.8,5.388,41.273,41.273,0,0,1,.019,5.306,5.709,5.709,0,0,1-1.779,3.74,1.733,1.733,0,0,0,.23.139,7.237,7.237,0,0,1,4.7,5.773c.6,3.176,1.244,6.343,1.872,9.514a.62.62,0,0,0,.084.16Zm-13.422-15.606c0-1.363.012-2.623,0-3.882-.01-.761-.257-1.04-1.031-1.183-2.617-.486-5.237-.96-7.855-1.439l-3.889-.714v-5.9h9.9a6.72,6.72,0,0,0-4.461-3.022c-4.287-.734-8.59-1.376-12.879-2.1a45.645,45.645,0,0,0-10.179-.931c-.47.027-.587.152-.648.615-.238,1.789-.506,3.577-.84,5.35-.171.907-.507,1.783-.776,2.7l.6.211a16.044,16.044,0,0,1,10.113,9.645.85.85,0,0,0,.945.665q10.195-.03,20.39-.014Zm-47.077-7.583a16.24,16.24,0,0,1,12.348-3.332,25.263,25.263,0,0,0,1.716-8.242h-.772c-2.482,0-4.963-.009-7.445,0a3.871,3.871,0,0,1-2.611-.838.6.6,0,0,0-.309-.169c-.968-.013-1.935-.008-2.927-.008Zm54.337-18.692a4.354,4.354,0,0,1-1.549,4.172c-2.321,2.255-4.587,4.567-6.875,6.856-.142.142-.274.292-.319.339l1.738,3.772a27.424,27.424,0,0,0,10.69-2.451.593.593,0,0,0,.231-.509c-.589-3.033-1.184-6.065-1.816-9.089A4.958,4.958,0,0,0-1568.3-66.656Zm-1.6,16.621a88.128,88.128,0,0,1,1.7,19.723h4.007V-51.825Zm-26.736,11.72.258,3.958h21.034v-3.958Zm26.418,8.011a85.509,85.509,0,0,0-1.693-19.438l-3.328.311c0,.7-.016,1.351.012,2a.632.632,0,0,0,.262.421,3.092,3.092,0,0,1,1.436,2.62c.1,3.317.19,6.634.285,9.95a2.07,2.07,0,0,1-.873,1.788.843.843,0,0,0-.313.415c-.147.631-.254,1.27-.381,1.936Zm-33.848-31.247c-.124-.154-.156-.206-.2-.247q-7.47-7.071-14.952-14.129a7.9,7.9,0,0,0-1.77-1.172,11.366,11.366,0,0,0-1.668-.564c0,.783-.019,1.41.015,2.035.007.131.186.277.317.375a17.8,17.8,0,0,1,1.848,1.367c2.386,2.333,4.767,4.673,7.078,7.08a40.8,40.8,0,0,0,5.891,5.011,1.082,1.082,0,0,0,.538.234C-1606.042-61.538-1605.111-61.551-1604.068-61.551Zm25.6,4.831c1.154-1.16,2.385-2.4,3.618-3.636,1.35-1.353,2.707-2.7,4.05-4.059a1.762,1.762,0,0,0,.476-1.954,1.778,1.778,0,0,0-1.536-1.219,1.935,1.935,0,0,0-1.674.7q-4.069,4.083-8.147,8.155a2.567,2.567,0,0,0-.208.253Zm1.2-18.931c0,.759-.033,1.486.007,2.209a4.042,4.042,0,0,0,3.582,3.8,3.888,3.888,0,0,0,4.212-2.7,19.546,19.546,0,0,0,.351-3.306Zm-45.351,2.775V-62.6h1.929c.124-2.941,1.743-4.152,4.331-4.008Zm45.39,25.25c-.055-1.11-.115-2.16-.155-3.211-.019-.491-.242-.637-.73-.633-2.542.023-5.085.01-7.627.012-.178,0-.355.022-.6.037,0,.248,0,.466,0,.684,0,1.431,0,1.445,1.4,1.705C-1582.41-48.56-1579.874-48.107-1577.228-47.627Zm7.973-30.092a3.92,3.92,0,0,0-4.049-4,3.94,3.94,0,0,0-3.907,4Zm-41.49,16.163c-1.065-.987-2.086-1.938-3.117-2.879a.616.616,0,0,0-.377-.148c-1-.008-1.995-.039-2.989.018A1.457,1.457,0,0,0-1618.611-63a1.451,1.451,0,0,0,1.45,1.438C-1615.029-61.537-1612.9-61.555-1610.744-61.555Zm46.531,36.287v-3c-1.131,0-2.206.019-3.28-.008-.517-.013-.91.03-1.187.579a2.084,2.084,0,0,1-.872.722c-.745.412-1.524.763-2.277,1.162a2.169,2.169,0,0,0-.432.417l.107.125ZM-1598.46-66.14l-2.836,4.583,5.258.863C-1596.863-62.547-1597.643-64.3-1598.46-66.14Zm24.234,40.889c-.1-1.825,1.308-2.269,2.481-2.946-1.113-.067-2.186-.075-3.258-.057a.769.769,0,0,0-.391.218,13.324,13.324,0,0,1-1.379,1.142c-.672.414-1.415.712-2.115,1.082a2.887,2.887,0,0,0-.5.478,4.638,4.638,0,0,0,.521.082C-1577.342-25.249-1575.82-25.25-1574.227-25.25Z"
        transform="translate(1624.681 83.774)" fill="#26355d" />
      <path id="Path_125" data-name="Path 125"
        d="M-1600.522,10.808a12.1,12.1,0,0,1-12.139,12.081,12.127,12.127,0,0,1-12.06-12.169A12.027,12.027,0,0,1-1612.6-1.289,12.009,12.009,0,0,1-1600.522,10.808Zm-5.6-4.932,1.752-1.037-2.316-2.308-1.022,1.749-1.731-1,.993-1.789-3.194-.819v2h-1.994v-2l-3.147.835,1,1.776-1.728.993-1.081-1.8-2.37,2.294,1.855,1.1-1,1.732-1.765-1.007-.847,3.165h2v2.046h-2l.858,3.129,1.764-.992,1,1.728-1.753,1.037,2.308,2.289,1.049-1.731,1.719.994-1,1.773,3.179.819V18.9h2v1.955l3.158-.823-1-1.758,1.729-1.007,1.04,1.758,2.295-2.325-1.745-1.026,1-1.723,1.783.979.828-3.164h-2V9.747h2.011l-.852-3.127-1.768.977Z"
        transform="translate(1624.721 37.673)" fill="#26355d" />
      <path id="Path_126" data-name="Path 126"
        d="M-1598.626,19.686a5.039,5.039,0,0,1-5.063,5.027,5.05,5.05,0,0,1-5-5.095,5.047,5.047,0,0,1,5.035-5A5.041,5.041,0,0,1-1598.626,19.686Zm-5.051-3.036a3.031,3.031,0,0,0-3.009,3.038,3.027,3.027,0,0,0,3.053,2.992,3.029,3.029,0,0,0,3.008-3.037A3.028,3.028,0,0,0-1603.677,16.651Z"
        transform="translate(1615.76 28.781)" fill="#26355d" />
      <path id="Path_127" data-name="Path 127" d="M-1599.441,23.813h1.9v1.966h-1.9Z"
        transform="translate(1610.592 23.644)" fill="#26355d" />
    </g>
  </g>
</svg>