<svg xmlns="http://www.w3.org/2000/svg" width="36.067" height="34.619" viewBox="0 0 46.067 44.619">
  <g id="Group_126" data-name="Group 126" transform="translate(-1663.133 -1429.265)">
    <g id="Group_109" data-name="Group 109" transform="translate(1663.133 1429.265)">
      <path id="Path_124" data-name="Path 124"
        d="M-1578.606-40.319a1.777,1.777,0,0,1-1.905,1.164c-3.434-.027-6.868,0-10.3-.023a2.338,2.338,0,0,1-1.15-.286,1.623,1.623,0,0,1,.107-2.82c.6-.335,1.242-.6,1.839-.941a.993.993,0,0,0,.418-.56c.168-.662.276-1.341.418-2.068h-16.167c0-.668,0-1.291,0-1.915a11.667,11.667,0,0,0-.519-3.542,10.466,10.466,0,0,0-10.943-7.128,10.348,10.348,0,0,0-6.6,3.3c-.4.421-.789.843-1.239,1.326V-80.772a6.023,6.023,0,0,1,3.314.565,9.644,9.644,0,0,1,2.008,1.415c3.537,3.308,7.042,6.651,10.558,9.982.076.072.154.142.269.249.1-.159.2-.3.292-.447q3.017-4.872,6.032-9.746a10,10,0,0,1,7.238-4.885c.468-.074.945-.088,1.45-.133V-82.3c-.4.042-.812.07-1.221.131a8.188,8.188,0,0,0-5.862,3.694c-1.277,1.939-2.466,3.935-3.678,5.916a.657.657,0,0,0-.024.522q1.135,2.617,2.315,5.213a.749.749,0,0,0,.476.375c2.067.35,4.139.676,6.211.995a.523.523,0,0,0,.392-.119c2.181-2.164,4.353-4.338,6.57-6.553-2.542-1.084-3.151-3.157-2.894-5.672h-2.221v-1.489h2.16c.039-.308.057-.575.108-.835a4.472,4.472,0,0,1,4.5-3.632,4.36,4.36,0,0,1,4.274,3.969,30.376,30.376,0,0,1,.014,3.908,4.205,4.205,0,0,1-1.31,2.755,1.274,1.274,0,0,0,.169.1,5.331,5.331,0,0,1,3.459,4.252c.443,2.339.916,4.672,1.379,7.008a.457.457,0,0,0,.062.118Zm-9.886-11.495c0-1,.009-1.932,0-2.859-.007-.56-.189-.766-.76-.872-1.927-.358-3.857-.707-5.786-1.06l-2.865-.526v-4.348h7.292A4.95,4.95,0,0,0-1593.9-63.7c-3.158-.54-6.327-1.014-9.486-1.544a33.621,33.621,0,0,0-7.5-.686c-.346.02-.432.112-.478.453-.175,1.318-.372,2.635-.619,3.941-.126.668-.374,1.313-.571,1.987l.445.156a11.817,11.817,0,0,1,7.448,7.1.626.626,0,0,0,.7.49q7.509-.022,15.018-.01Zm-34.674-5.585a11.962,11.962,0,0,1,9.095-2.454,18.607,18.607,0,0,0,1.264-6.071h-.569c-1.828,0-3.656-.007-5.484,0a2.851,2.851,0,0,1-1.923-.617.439.439,0,0,0-.228-.125c-.713-.009-1.425-.006-2.156-.006Zm40.022-13.767a3.206,3.206,0,0,1-1.141,3.073c-1.709,1.661-3.378,3.364-5.063,5.05-.1.1-.2.215-.235.25l1.28,2.778a20.2,20.2,0,0,0,7.873-1.805.437.437,0,0,0,.17-.375c-.434-2.234-.872-4.467-1.338-6.694A3.651,3.651,0,0,0-1583.145-71.166Zm-1.181,12.242a64.918,64.918,0,0,1,1.25,14.527h2.951V-60.242Zm-19.692,8.632.19,2.916h15.493v-2.916Zm19.458,5.9a62.983,62.983,0,0,0-1.247-14.317l-2.451.229c0,.517-.012.995.009,1.472a.466.466,0,0,0,.193.31,2.277,2.277,0,0,1,1.058,1.93c.075,2.443.14,4.886.21,7.329a1.524,1.524,0,0,1-.643,1.317.621.621,0,0,0-.231.305c-.108.465-.187.936-.281,1.426Zm-24.931-23.015c-.091-.114-.115-.152-.147-.182q-5.5-5.208-11.013-10.407a5.815,5.815,0,0,0-1.3-.863,8.371,8.371,0,0,0-1.229-.415c0,.577-.014,1.039.011,1.5.005.1.137.2.234.276a13.109,13.109,0,0,1,1.361,1.007c1.758,1.718,3.511,3.442,5.214,5.215a30.047,30.047,0,0,0,4.339,3.691.8.8,0,0,0,.4.172C-1610.944-67.4-1610.258-67.406-1609.49-67.406Zm18.856,3.558c.85-.854,1.756-1.767,2.665-2.678.994-1,1.994-1.988,2.983-2.989a1.3,1.3,0,0,0,.35-1.439,1.31,1.31,0,0,0-1.132-.9,1.425,1.425,0,0,0-1.233.513q-3,3.007-6,6.007a1.89,1.89,0,0,0-.153.186Zm.884-13.944c0,.559-.025,1.095,0,1.627a2.977,2.977,0,0,0,2.638,2.8,2.864,2.864,0,0,0,3.1-1.988,14.409,14.409,0,0,0,.259-2.435Zm-33.4,2.044v7.566h1.421c.092-2.166,1.284-3.058,3.19-2.952Zm33.432,18.6c-.04-.818-.084-1.591-.114-2.365-.014-.362-.179-.469-.538-.466-1.872.017-3.745.007-5.618.009-.131,0-.262.016-.441.028,0,.183,0,.343,0,.5,0,1.054,0,1.064,1.028,1.256C-1593.538-57.838-1591.67-57.5-1589.721-57.15Zm5.873-22.164a2.887,2.887,0,0,0-2.982-2.945,2.9,2.9,0,0,0-2.878,2.945Zm-30.559,11.9c-.785-.727-1.537-1.428-2.3-2.121a.453.453,0,0,0-.277-.109c-.734-.006-1.469-.029-2.2.013a1.073,1.073,0,0,0-1.02,1.151,1.069,1.069,0,0,0,1.068,1.059C-1617.564-67.4-1615.993-67.409-1614.407-67.409Zm34.272,26.727v-2.207c-.833,0-1.624.014-2.416-.006-.38-.01-.671.022-.875.426a1.535,1.535,0,0,1-.642.532c-.549.3-1.123.562-1.677.856a1.6,1.6,0,0,0-.318.307l.079.092Zm-25.225-30.1-2.089,3.376,3.873.636Zm17.849,30.117c-.075-1.344.963-1.672,1.827-2.17-.82-.049-1.61-.055-2.4-.042a.566.566,0,0,0-.288.16,9.812,9.812,0,0,1-1.016.841c-.495.305-1.042.524-1.558.8a2.132,2.132,0,0,0-.366.352,3.418,3.418,0,0,0,.384.06C-1589.806-40.668-1588.685-40.669-1587.511-40.669Z"
        transform="translate(1624.673 83.774)" fill="#e9eae9" />
      <path id="Path_125" data-name="Path 125"
        d="M-1606.9,7.621a8.914,8.914,0,0,1-8.941,8.9,8.932,8.932,0,0,1-8.883-8.963,8.859,8.859,0,0,1,8.925-8.845A8.845,8.845,0,0,1-1606.9,7.621Zm-4.125-3.632,1.291-.763-1.706-1.7-.753,1.288-1.275-.733.731-1.318-2.353-.6V1.629h-1.469V.157l-2.318.615.735,1.308-1.273.731-.8-1.323-1.746,1.689,1.367.809-.738,1.276-1.3-.741-.624,2.331h1.471V8.36h-1.475l.632,2.3,1.3-.73.735,1.273-1.291.763,1.7,1.686.772-1.275,1.266.732-.735,1.306,2.342.6V13.583h1.473v1.44l2.326-.606-.734-1.3,1.273-.741.766,1.295,1.69-1.713-1.286-.756.737-1.269,1.313.721.61-2.33h-1.476V6.839h1.481l-.628-2.3-1.3.72Z"
        transform="translate(1624.722 28.088)" fill="#e9eae9" />
      <path id="Path_126" data-name="Path 126"
        d="M-1601.277,18.352a3.711,3.711,0,0,1-3.729,3.7,3.719,3.719,0,0,1-3.681-3.752,3.717,3.717,0,0,1,3.708-3.681A3.713,3.713,0,0,1-1601.277,18.352ZM-1605,16.116a2.232,2.232,0,0,0-2.216,2.238,2.229,2.229,0,0,0,2.249,2.2,2.231,2.231,0,0,0,2.215-2.237A2.23,2.23,0,0,0-1605,16.116Z"
        transform="translate(1613.897 17.347)" fill="#e9eae9" />
      <path id="Path_127" data-name="Path 127" d="M-1599.441,23.813h1.4v1.448h-1.4Z"
        transform="translate(1607.654 11.141)" fill="#e9eae9" />
    </g>
  </g>
</svg>