<svg xmlns="http://www.w3.org/2000/svg" viewBox="0 0 338.01 32.026"><g id="Group_4" data-name="Group 4" transform="translate(-128 -83.226)"><g id="Group_1" data-name="Group 1" transform="translate(128 83.226)"><path id="Path_1" data-name="Path 1" d="M-150.376,257.139h-43.132a3.56,3.56,0,0,0-3.559,3.554V285.6a3.56,3.56,0,0,0,3.559,3.562h43.132a3.559,3.559,0,0,0,3.554-3.562V260.693a3.558,3.558,0,0,0-3.554-3.554m-37.132,25.286V263.872a.162.162,0,0,1,.158-.16h30.814a.161.161,0,0,1,.158.16v18.553a.155.155,0,0,1-.158.164H-187.35a.156.156,0,0,1-.158-.164" transform="translate(369.498 -257.139)" fill="#fff"></path><path id="Path_2" data-name="Path 2" d="M-247.655,257.14h-8.913a.322.322,0,0,0-.324.319v24.967a.155.155,0,0,1-.153.164h-29.341a.159.159,0,0,1-.158-.164v-5.293a.323.323,0,0,0-.327-.317h-8.909a.321.321,0,0,0-.322.317V285.6a3.561,3.561,0,0,0,3.559,3.564h41.657a3.56,3.56,0,0,0,3.554-3.564v-28.14a.318.318,0,0,0-.322-.319" transform="translate(296.103 -257.138)" fill="#fff"></path><path id="Path_3" data-name="Path 3" d="M-181.157,257.14h-48.982a.318.318,0,0,0-.322.319v5.932a.322.322,0,0,0,.322.322h19.551a.162.162,0,0,1,.164.158v24.972a.322.322,0,0,0,.322.319h8.9a.328.328,0,0,0,.333-.319V263.871a.153.153,0,0,1,.153-.158h19.556a.325.325,0,0,0,.322-.322v-5.932a.321.321,0,0,0-.322-.319" transform="translate(344.75 -257.138)" fill="#fff"></path><path id="Path_4" data-name="Path 4" d="M-115.113,257.14h-8.9a.323.323,0,0,0-.327.319v24.967a.155.155,0,0,1-.155.164h-29.1a.156.156,0,0,1-.16-.164V257.459a.322.322,0,0,0-.327-.319H-163a.322.322,0,0,0-.322.319V285.6a3.559,3.559,0,0,0,3.559,3.564h41.417a3.561,3.561,0,0,0,3.559-3.564v-28.14a.32.32,0,0,0-.327-.319" transform="translate(394.508 -257.138)" fill="#fff"></path><path id="Path_5" data-name="Path 5" d="M-80.92,288.573-99.113,276.1h14.173a3.552,3.552,0,0,0,3.548-3.548v-11.86a3.547,3.547,0,0,0-3.548-3.55h-45.284a.316.316,0,0,0-.327.313v31.392a.322.322,0,0,0,.327.313h8.9a.322.322,0,0,0,.327-.313V270.7l26.724,18.318a.836.836,0,0,0,.458.139H-81.1a.323.323,0,0,0,.183-.588m-39.915-24.861H-91.1a.168.168,0,0,1,.16.158v5.5a.165.165,0,0,1-.16.159h-29.734a.158.158,0,0,1-.158-.159v-5.5a.16.16,0,0,1,.158-.158" transform="translate(418.792 -257.136)" fill="#fff"></path><path id="Path_6" data-name="Path 6" d="M-215.036,263.712a.313.313,0,0,0,.317-.313v-5.942a.311.311,0,0,0-.317-.313h-44.605a3.549,3.549,0,0,0-3.559,3.55v24.9a3.558,3.558,0,0,0,3.559,3.564h44.605a.316.316,0,0,0,.317-.313v-5.937a.315.315,0,0,0-.317-.322h-38.442a.167.167,0,0,1-.172-.16V276.6a.156.156,0,0,1,.172-.153H-217.5a.332.332,0,0,0,.327-.332v-5.92a.328.328,0,0,0-.327-.331h-35.976a.161.161,0,0,1-.172-.16v-5.831a.166.166,0,0,1,.172-.158Z" transform="translate(320.487 -257.136)" fill="#fff"></path></g></g></svg>