<svg xmlns="http://www.w3.org/2000/svg" viewBox="0 0 154 155">
  <g id="Group_123" data-name="Group 123" transform="translate(-320 -1057)">
    <ellipse id="Oval" cx="76" cy="76.5" rx="76" ry="76.5" transform="translate(321 1058)" fill="#fff" stroke="#26355d"
      stroke-width="2" />
    <g id="Group_106" data-name="Group 106" transform="matrix(1, 0.017, -0.017, 1, 366.13, 1098.465)">
      <path id="Path_112" data-name="Path 112"
        d="M69.063,6.216A9.339,9.339,0,0,1,66.885,10.1q-4.811,6.076-9.579,12.187a12.886,12.886,0,0,1-10.714,5.238c-6.517-.012-13.035,0-19.552-.013a5.515,5.515,0,0,1-1.516-.232c-3.506-1.031-7-2.087-10.561-3.151-.1.216-.179.414-.274.606a4.565,4.565,0,0,1-4.209,2.771c-2.786.053-5.574.022-8.36.011A2.011,2.011,0,0,1,.005,25.4Q0,14.038.005,2.679A2.02,2.02,0,0,1,2.186.554c2.674-.008,5.349,0,8.024,0a4.713,4.713,0,0,1,4.3,2.422c.055.091.117.179.117.178,1.5-.657,2.913-1.418,4.412-1.9a14.5,14.5,0,0,1,10.765.7c1.632.744,3.213,1.6,4.832,2.376a2.636,2.636,0,0,0,1.084.259c2.674.021,5.349.01,8.024.012a6.07,6.07,0,0,1,6.436,6.212c0,.062.021.124.046.269.211-.192.391-.343.557-.509,2.989-2.986,5.956-5.994,8.97-8.954a5.443,5.443,0,0,1,8.995,1.962c.119.335.212.679.317,1.019Zm-53.954,13.7c.152.06.271.118.4.156q5.544,1.663,11.091,3.315a2.611,2.611,0,0,0,.728.089q9.742.006,19.486,0a8.611,8.611,0,0,0,7.082-3.407Q59.241,13.3,64.554,6.506a1.415,1.415,0,1,0-2.089-1.886c-.145.141-.287.286-.429.429q-5.411,5.411-10.819,10.824a2.437,2.437,0,0,1-1.76.863q-8.732,0-17.462,0A1.942,1.942,0,0,1,30.22,15.7a2.009,2.009,0,0,1,1.853-3.007c3.911-.014,7.821,0,11.732-.005a2.041,2.041,0,1,0,0-4.044c-2.944,0-5.888.015-8.832-.017A3.648,3.648,0,0,1,33.5,8.277c-1.764-.835-3.49-1.751-5.253-2.591a11.029,11.029,0,0,0-7.159-.83c-2.17.448-3.937,1.7-5.777,2.814-.134.081-.191.379-.192.577-.016,1.483-.009,2.966-.009,4.449Zm-4.047-7.186H4.092v10.75c2.015,0,3.988,0,5.96,0,.826,0,1.009-.192,1.01-1.046q0-4.579,0-9.159ZM4.088,4.6v4H11.06c0-1.116.04-2.192-.029-3.261-.017-.257-.392-.7-.612-.7C8.318,4.583,6.215,4.6,4.088,4.6Z"
        transform="translate(0 41.525)" fill="#26355d" />
      <path id="Path_113" data-name="Path 113"
        d="M32.117,0c.536.153,1.087.268,1.6.467a7.219,7.219,0,0,1,4.454,4.654c.795,2.407,1.547,4.829,2.292,7.252a1.276,1.276,0,0,0,.779.89,5.189,5.189,0,0,1,3.265,4.853c.06,2.066.046,4.136,0,6.2A5.165,5.165,0,0,1,41.7,28.986a.928.928,0,0,0-.562.989c.037,1.033.025,2.068.007,3.1a4.71,4.71,0,0,1-4.69,4.679,25.992,25.992,0,0,1-3.3-.046A4.668,4.668,0,0,1,29.017,33c-.011-1.077,0-2.153,0-3.278H15.526q0,1.473,0,2.944a4.734,4.734,0,0,1-5.088,5.093,20.292,20.292,0,0,1-3.291-.131,4.587,4.587,0,0,1-3.754-4.483c-.022-1.1-.016-2.2,0-3.3a.737.737,0,0,0-.44-.785A5.25,5.25,0,0,1,.019,24.184c-.018-1.978-.032-3.956,0-5.933A5.23,5.23,0,0,1,3.358,13.24a1.141,1.141,0,0,0,.7-.8C4.761,10.166,5.5,7.907,6.194,5.631A7.4,7.4,0,0,1,12.251.095.644.644,0,0,0,12.424,0ZM22.34,16.858q-8.289,0-16.579,0c-1.236,0-1.7.468-1.7,1.717q0,2.7,0,5.391c0,1.162.483,1.656,1.627,1.656q16.579,0,33.158,0c1.146,0,1.63-.493,1.632-1.65,0-1.752,0-3.5,0-5.256,0-1.439-.412-1.858-1.83-1.858Zm14.022-4.067c-.669-2.12-1.306-4.149-1.951-6.176A3.365,3.365,0,0,0,30.9,4.047q-8.63,0-17.26,0a3.358,3.358,0,0,0-3.511,2.565Q9.242,9.4,8.37,12.195c-.057.184-.1.372-.157.6ZM7.437,29.7c0,1.148-.041,2.244.032,3.333a.962.962,0,0,0,.665.65,15.614,15.614,0,0,0,2.683,0,.911.911,0,0,0,.627-.62c.066-1.108.03-2.223.03-3.363Zm25.626,0c0,1.135-.006,2.207,0,3.279a.664.664,0,0,0,.7.734,23.54,23.54,0,0,0,2.618-.025.967.967,0,0,0,.684-.631c.073-1.107.032-2.222.032-3.357Z"
        transform="translate(12.261 0)" fill="#26355d" />
    </g>
  </g>
</svg>