<svg xmlns="http://www.w3.org/2000/svg" width="40.068" height="40.437" viewBox="0 0 50.068 50.437">
  <g id="Group_123" data-name="Group 123" transform="translate(-364.925 -1098.619)">
    <g id="Group_106" data-name="Group 106" transform="matrix(1, 0.017, -0.017, 1, 365.793, 1098.465)">
      <path id="Path_112" data-name="Path 112"
        d="M49.73,4.476a6.724,6.724,0,0,1-1.568,2.8q-3.464,4.375-6.9,8.775a9.279,9.279,0,0,1-7.715,3.772c-4.693-.009-9.386,0-14.079-.009a3.971,3.971,0,0,1-1.092-.167c-2.524-.742-5.044-1.5-7.6-2.269-.07.156-.129.3-.2.437a3.287,3.287,0,0,1-3.03,2c-2.006.038-4.013.016-6.02.008A1.448,1.448,0,0,1,0,18.287Q0,10.108,0,1.929A1.454,1.454,0,0,1,1.574.4C3.5.394,5.426.4,7.351.4a3.394,3.394,0,0,1,3.1,1.744c.04.066.084.129.084.128C11.613,1.8,12.629,1.248,13.708.9a10.439,10.439,0,0,1,7.752.5c1.175.536,2.314,1.152,3.479,1.711a1.9,1.9,0,0,0,.781.186c1.926.015,3.852.007,5.778.009a4.371,4.371,0,0,1,4.634,4.473c0,.045.015.089.033.194.152-.139.281-.247.4-.366,2.152-2.15,4.289-4.316,6.459-6.447A3.92,3.92,0,0,1,49.5,2.577c.086.241.153.489.228.734ZM10.879,14.34c.109.043.2.085.286.112q3.992,1.2,7.986,2.387a1.88,1.88,0,0,0,.524.064q7.015,0,14.031,0a6.2,6.2,0,0,0,5.1-2.453q3.852-4.873,7.677-9.767a1.019,1.019,0,1,0-1.5-1.358c-.1.1-.206.206-.309.309q-3.9,3.9-7.79,7.794a1.754,1.754,0,0,1-1.267.621q-6.287,0-12.574,0a1.4,1.4,0,0,1-1.278-.742A1.446,1.446,0,0,1,23.095,9.14c2.816-.01,5.632,0,8.448,0a1.47,1.47,0,1,0,0-2.912c-2.12,0-4.24.011-6.36-.012a2.627,2.627,0,0,1-1.064-.252c-1.27-.6-2.513-1.261-3.782-1.866a7.941,7.941,0,0,0-5.155-.6,13.515,13.515,0,0,0-4.16,2.026c-.1.058-.137.273-.139.415-.012,1.068-.006,2.136-.006,3.2ZM7.965,9.165H2.946v7.74c1.451,0,2.871,0,4.292,0,.595,0,.727-.138.727-.753q0-3.3,0-6.6ZM2.943,3.316V6.193h5.02c0-.8.029-1.578-.021-2.348-.012-.185-.282-.5-.44-.506C5.99,3.3,4.475,3.316,2.943,3.316Z"
        transform="translate(0 29.901)" fill="#e3e3e3" />
      <path id="Path_113" data-name="Path 113"
        d="M23.126,0c.386.11.782.193,1.155.336a5.2,5.2,0,0,1,3.207,3.351c.572,1.734,1.114,3.477,1.65,5.222a.919.919,0,0,0,.561.641,3.736,3.736,0,0,1,2.351,3.495c.043,1.488.033,2.978,0,4.466a3.719,3.719,0,0,1-2.025,3.361.668.668,0,0,0-.4.712c.026.744.018,1.489.005,2.233a3.392,3.392,0,0,1-3.377,3.369,18.716,18.716,0,0,1-2.377-.033,3.361,3.361,0,0,1-2.983-3.393c-.008-.776,0-1.551,0-2.361H11.18q0,1.06,0,2.12a3.409,3.409,0,0,1-3.664,3.667,14.612,14.612,0,0,1-2.37-.095,3.3,3.3,0,0,1-2.7-3.228c-.016-.793-.011-1.586,0-2.379a.53.53,0,0,0-.317-.565A3.78,3.78,0,0,1,.013,17.414C0,15.99-.01,14.566.016,13.142a3.766,3.766,0,0,1,2.4-3.608.822.822,0,0,0,.5-.578c.508-1.636,1.043-3.262,1.54-4.9A5.326,5.326,0,0,1,8.822.068.464.464,0,0,0,8.946,0Zm-7.04,12.139q-5.969,0-11.938,0c-.89,0-1.223.337-1.224,1.236q0,1.941,0,3.882c0,.837.348,1.193,1.171,1.193q11.938,0,23.876,0c.825,0,1.173-.355,1.175-1.188,0-1.262,0-2.523,0-3.785,0-1.036-.3-1.338-1.318-1.338Zm10.1-2.929c-.482-1.527-.94-2.988-1.4-4.447a2.423,2.423,0,0,0-2.527-1.849q-6.214,0-12.429,0A2.418,2.418,0,0,0,7.3,4.761q-.64,2.008-1.268,4.02c-.041.132-.071.268-.113.429ZM5.355,21.384c0,.827-.029,1.616.023,2.4a.693.693,0,0,0,.479.468,11.243,11.243,0,0,0,1.932,0,.656.656,0,0,0,.451-.446c.047-.8.021-1.6.021-2.421Zm18.453,0c0,.817,0,1.589,0,2.361a.478.478,0,0,0,.505.528,16.95,16.95,0,0,0,1.885-.018.7.7,0,0,0,.492-.454c.052-.8.023-1.6.023-2.417Z"
        transform="translate(8.829 0)" fill="#e3e3e3" />
    </g>
  </g>
</svg>