<svg xmlns="http://www.w3.org/2000/svg" width="29.674" height="44.499" viewBox="0 0 44.674 59.499">
  <g id="Group_125" data-name="Group 125" transform="translate(-1136.079 -1089.504)">
    <g id="Group_108" data-name="Group 108" transform="translate(1136.079 1090.005)">
      <path id="Path_122" data-name="Path 122"
        d="M-1820.169-125.68c-.209-.221-.341-.369-.481-.51-1.319-1.322-2.679-2.606-3.95-3.973a12.438,12.438,0,0,0-4.374-3.2,1.729,1.729,0,0,1-.76-.718c-1.075-1.881-2.116-3.781-3.163-5.678a1.049,1.049,0,0,1,.209-1.55c.366-.373.74-.738,1.108-1.108a1,1,0,0,1,1.312-.193c1.982,1.1,3.969,2.19,5.938,3.313a1.525,1.525,0,0,1,.61.7,12.142,12.142,0,0,0,3.159,4.33c1.367,1.27,2.655,2.627,3.967,3.957a3.093,3.093,0,0,1,.361.583c.7-.7,1.259-1.211,1.768-1.778a2.979,2.979,0,0,0,.692-2.526,8.638,8.638,0,0,1,8.91-9.916,11.292,11.292,0,0,1,2.809.589c.97.3,1.118,1.077.4,1.8-1.384,1.4-2.773,2.795-4.179,4.171a1.024,1.024,0,0,0-.279.9c.045,1.375.646,2.1,2.086,2.1a1.1,1.1,0,0,0,.95-.285c1.348-1.378,2.719-2.735,4.086-4.094.807-.8,1.505-.645,1.91.417a8.674,8.674,0,0,1-9.293,11.648,3.16,3.16,0,0,0-2.9.949c-.432.447-.884.874-1.364,1.347l1.109,1.036a5.259,5.259,0,0,1,.566-.746,2.909,2.909,0,0,1,3.561-.358,2.8,2.8,0,0,1,1.178,3.255.654.654,0,0,0,.226.771c1.8,1.784,3.607,3.552,5.364,5.372a4.8,4.8,0,0,1-2.256,8.032,4.652,4.652,0,0,1-4.64-1.314q-2.639-2.6-5.237-5.244a.746.746,0,0,0-.876-.237,2.823,2.823,0,0,1-3.239-1.235,2.835,2.835,0,0,1,.334-3.453,6.309,6.309,0,0,1,.89-.667l-1.008-1.01c-.637.6-1.3,1.129-1.845,1.758a2.865,2.865,0,0,0-.56,2.387,8.638,8.638,0,0,1-8.829,9.884,11.743,11.743,0,0,1-2.929-.6c-.927-.28-1.069-1.076-.384-1.77q2.076-2.1,4.178-4.172a.818.818,0,0,0,.289-.9c-.162-.575-.1-1.34-.466-1.694s-1.118-.35-1.711-.422a1.068,1.068,0,0,0-.778.24c-1.4,1.355-2.764,2.746-4.145,4.12-.83.826-1.524.663-1.939-.444a8.677,8.677,0,0,1,9.351-11.6,3.152,3.152,0,0,0,2.852-.938C-1821.133-124.8-1820.653-125.225-1820.169-125.68Zm16.18-16.25c-.427-.048-.685-.093-.943-.1a6.761,6.761,0,0,0-6.948,7.683,5.068,5.068,0,0,1-1.518,4.549q-3.39,3.384-6.776,6.773a5.1,5.1,0,0,1-4.553,1.515,6.739,6.739,0,0,0-7.524,5.284,4.9,4.9,0,0,0,0,2.553c1.262-1.265,2.472-2.464,3.662-3.681a1.32,1.32,0,0,1,1.354-.412q1.408.321,2.833.561a1.235,1.235,0,0,1,1.131,1.133c.157.929.333,1.857.552,2.773a1.4,1.4,0,0,1-.442,1.458c-1.1,1.062-2.165,2.152-3.243,3.233-.118.118-.221.251-.389.442.377.039.654.085.932.094a6.755,6.755,0,0,0,6.9-7.677,5.127,5.127,0,0,1,1.556-4.593q3.355-3.334,6.69-6.688a5.136,5.136,0,0,1,4.595-1.562,6.73,6.73,0,0,0,7.389-4.76,5.6,5.6,0,0,0,.151-3.059c-.2.194-.348.327-.488.466-1.081,1.077-2.166,2.152-3.239,3.237a1.219,1.219,0,0,1-1.193.394c-1-.209-2-.416-3.009-.6a1.186,1.186,0,0,1-1.055-1.064c-.16-.908-.306-1.823-.539-2.714a1.535,1.535,0,0,1,.511-1.66C-1806.407-139.488-1805.26-140.664-1803.989-141.93Zm-5.572,26.709c1.872,1.9,3.736,3.87,5.69,5.746a2.777,2.777,0,0,0,3.83-.162,2.845,2.845,0,0,0,.209-3.879c-.52-.61-1.116-1.155-1.683-1.724-1.345-1.351-2.693-2.7-4.01-4.019Zm-7.949-13.3c-1.623-1.617-3.21-3.266-4.874-4.834a11.161,11.161,0,0,1-2.823-3.906,1.337,1.337,0,0,0-.53-.612c-1.513-.866-3.041-1.707-4.573-2.538-.137-.075-.343-.025-.516-.032a1.408,1.408,0,0,0,.054.519c.794,1.462,1.592,2.922,2.428,4.359a1.855,1.855,0,0,0,.788.753,11.268,11.268,0,0,1,3.758,2.727c1.6,1.691,3.278,3.3,4.941,4.965Zm5.274,12.874a1.869,1.869,0,0,0,.536-.3q2.72-2.688,5.41-5.407a.944.944,0,0,0,.022-1.354.915.915,0,0,0-1.348-.018c-1.844,1.818-3.667,3.657-5.5,5.49a.843.843,0,0,0-.135.2C-1813.6-116.386-1813.136-115.635-1812.236-115.649Zm.263-7.268-1.3,1.277.836.86,1.277-1.277Z"
        transform="translate(1837.794 143.951)" fill="#e3e3e3" stroke="#e2e3e2" stroke-width="1" />
      <path id="Path_123" data-name="Path 123"
        d="M-1798.679-32.4a6.046,6.046,0,0,1-1.408,2.514q-3.112,3.93-6.2,7.883a8.337,8.337,0,0,1-6.931,3.389c-4.216-.008-8.432,0-12.648-.008a3.559,3.559,0,0,1-.981-.151c-2.268-.666-4.531-1.349-6.831-2.038-.063.14-.116.268-.177.392a2.953,2.953,0,0,1-2.723,1.792c-1.8.035-3.605.015-5.408.008a1.3,1.3,0,0,1-1.368-1.373q-.007-7.347,0-14.695a1.306,1.306,0,0,1,1.411-1.375c1.73,0,3.46,0,5.19,0a3.048,3.048,0,0,1,2.781,1.567c.036.059.076.115.076.115.972-.425,1.884-.917,2.854-1.23a9.378,9.378,0,0,1,6.963.453c1.056.481,2.079,1.035,3.126,1.537a1.7,1.7,0,0,0,.7.167c1.73.014,3.459.006,5.19.008a3.927,3.927,0,0,1,4.164,4.018c0,.04.013.08.03.175.136-.124.253-.222.36-.329,1.934-1.931,3.853-3.877,5.8-5.792a3.521,3.521,0,0,1,5.818,1.27c.077.217.137.439.205.659Zm-34.9,8.861c.1.039.176.077.257.1q3.586,1.075,7.174,2.144a1.672,1.672,0,0,0,.47.057q6.3,0,12.6,0a5.573,5.573,0,0,0,4.582-2.2q3.461-4.378,6.9-8.774a.928.928,0,0,0,0-1.362.933.933,0,0,0-1.352.141c-.094.091-.185.185-.278.277q-3.5,3.5-7,7a1.576,1.576,0,0,1-1.138.558q-5.648,0-11.3,0a1.257,1.257,0,0,1-1.148-.667,1.3,1.3,0,0,1,1.2-1.945c2.53-.009,5.059,0,7.589,0a1.337,1.337,0,0,0,1.5-1.329,1.336,1.336,0,0,0-1.5-1.287c-1.9,0-3.809.01-5.713-.011a2.36,2.36,0,0,1-.955-.227c-1.141-.54-2.258-1.133-3.4-1.676a7.132,7.132,0,0,0-4.631-.537,12.133,12.133,0,0,0-3.737,1.82c-.087.052-.124.245-.125.373-.01.959-.005,1.918-.005,2.878Zm-2.617-4.649h-4.509v6.954c1.3,0,2.579,0,3.856,0,.534,0,.652-.124.653-.676q0-2.963,0-5.925Zm-4.512-5.255v2.585h4.51c0-.722.026-1.418-.019-2.109-.011-.167-.254-.451-.4-.455C-1837.973-33.458-1839.333-33.444-1840.709-33.444Z"
        transform="translate(1843.353 77.607)" fill="#e3e3e3" />
    </g>
  </g>
</svg>