<svg xmlns="http://www.w3.org/2000/svg" viewBox="0 0 154 154">
  <g id="Group_125" data-name="Group 125" transform="translate(-1087 -1057)">
    <circle id="Oval" cx="76" cy="76" r="76" transform="translate(1088 1058)" fill="#fff" stroke="#25355c"
      stroke-width="2" />
    <g id="Group_108" data-name="Group 108" transform="translate(1136.079 1090.005)">
      <path id="Path_122" data-name="Path 122"
        d="M-1815.181-119.249c-.282-.3-.461-.5-.651-.689-1.784-1.787-3.622-3.524-5.341-5.372a16.815,16.815,0,0,0-5.913-4.327,2.338,2.338,0,0,1-1.027-.971c-1.453-2.543-2.861-5.112-4.277-7.676a1.418,1.418,0,0,1,.282-2.1c.495-.5,1-1,1.5-1.5a1.353,1.353,0,0,1,1.774-.26c2.679,1.488,5.366,2.961,8.028,4.48a2.062,2.062,0,0,1,.825.952,16.416,16.416,0,0,0,4.271,5.854c1.849,1.718,3.589,3.552,5.363,5.35a4.178,4.178,0,0,1,.488.788c.941-.94,1.7-1.638,2.39-2.4a4.027,4.027,0,0,0,.936-3.415,11.678,11.678,0,0,1,12.047-13.407,15.267,15.267,0,0,1,3.8.8c1.312.4,1.511,1.457.547,2.432-1.871,1.892-3.748,3.779-5.65,5.639a1.384,1.384,0,0,0-.377,1.219c.061,1.859.874,2.836,2.82,2.844a1.494,1.494,0,0,0,1.285-.386c1.823-1.864,3.675-3.7,5.524-5.534,1.091-1.084,2.035-.873,2.582.564a11.727,11.727,0,0,1-12.564,15.748,4.272,4.272,0,0,0-3.927,1.284c-.584.6-1.2,1.182-1.844,1.821l1.5,1.4a7.108,7.108,0,0,1,.766-1.008,3.933,3.933,0,0,1,4.814-.485,3.778,3.778,0,0,1,1.593,4.4.884.884,0,0,0,.3,1.042c2.427,2.411,4.876,4.8,7.251,7.263a6.488,6.488,0,0,1-3.05,10.858,6.289,6.289,0,0,1-6.273-1.777q-3.567-3.517-7.08-7.089a1.009,1.009,0,0,0-1.185-.32,3.816,3.816,0,0,1-4.379-1.67,3.833,3.833,0,0,1,.452-4.669,8.53,8.53,0,0,1,1.2-.9l-1.362-1.365c-.861.808-1.753,1.527-2.495,2.376a3.874,3.874,0,0,0-.757,3.227,11.678,11.678,0,0,1-11.936,13.363,15.875,15.875,0,0,1-3.959-.812c-1.253-.379-1.446-1.455-.519-2.392q2.806-2.838,5.648-5.641a1.106,1.106,0,0,0,.39-1.21c-.219-.777-.142-1.812-.63-2.29s-1.511-.473-2.313-.57a1.444,1.444,0,0,0-1.052.324c-1.892,1.833-3.737,3.712-5.6,5.57-1.123,1.117-2.06.9-2.622-.6a11.731,11.731,0,0,1,12.642-15.688,4.261,4.261,0,0,0,3.856-1.268C-1816.484-118.062-1815.835-118.635-1815.181-119.249Zm21.875-21.969c-.578-.065-.925-.126-1.274-.139a9.14,9.14,0,0,0-9.394,10.387,6.851,6.851,0,0,1-2.053,6.15q-4.583,4.576-9.16,9.157a6.9,6.9,0,0,1-6.156,2.048,9.111,9.111,0,0,0-10.172,7.144,6.625,6.625,0,0,0,.006,3.451c1.706-1.711,3.342-3.331,4.951-4.977a1.785,1.785,0,0,1,1.831-.557q1.9.434,3.83.758a1.67,1.67,0,0,1,1.529,1.532c.212,1.256.451,2.51.746,3.749a1.886,1.886,0,0,1-.6,1.971c-1.482,1.436-2.927,2.91-4.384,4.371-.159.16-.3.339-.526.6.509.052.884.115,1.26.127a9.132,9.132,0,0,0,9.323-10.379,6.931,6.931,0,0,1,2.1-6.21q4.536-4.508,9.045-9.042a6.944,6.944,0,0,1,6.212-2.112,9.1,9.1,0,0,0,9.989-6.435,7.578,7.578,0,0,0,.2-4.136c-.275.263-.471.442-.66.63-1.462,1.457-2.928,2.909-4.38,4.376a1.648,1.648,0,0,1-1.613.533c-1.353-.283-2.708-.562-4.069-.81a1.6,1.6,0,0,1-1.426-1.439c-.217-1.228-.413-2.465-.729-3.669a2.075,2.075,0,0,1,.691-2.244C-1796.575-137.918-1795.024-139.507-1793.306-141.219Zm-7.532,36.11c2.531,2.569,5.051,5.231,7.692,7.768a3.754,3.754,0,0,0,5.178-.219,3.846,3.846,0,0,0,.282-5.245c-.7-.824-1.509-1.561-2.275-2.331-1.818-1.826-3.64-3.648-5.422-5.434Zm-10.747-17.984c-2.194-2.186-4.339-4.415-6.589-6.535a15.091,15.091,0,0,1-3.817-5.281,1.807,1.807,0,0,0-.717-.828c-2.046-1.171-4.111-2.307-6.183-3.432-.186-.1-.463-.033-.7-.043a1.9,1.9,0,0,0,.073.7c1.074,1.976,2.152,3.95,3.283,5.894a2.508,2.508,0,0,0,1.065,1.017,15.235,15.235,0,0,1,5.081,3.687c2.16,2.286,4.432,4.465,6.68,6.713Zm7.131,17.406a2.525,2.525,0,0,0,.724-.405q3.677-3.634,7.314-7.31a1.276,1.276,0,0,0,.03-1.83,1.237,1.237,0,0,0-1.823-.024c-2.493,2.458-4.958,4.944-7.431,7.422a1.142,1.142,0,0,0-.182.268C-1806.3-106.685-1805.672-105.669-1804.455-105.687Zm.355-9.826-1.751,1.727,1.13,1.162,1.727-1.726Z"
        transform="translate(1839.008 143.951)" fill="#26355d" stroke="#26355d" stroke-width="1" />
      <path id="Path_123" data-name="Path 123"
        d="M-1782.956-30.986a8.174,8.174,0,0,1-1.9,3.4q-4.207,5.314-8.377,10.657a11.272,11.272,0,0,1-9.37,4.582c-5.7-.011-11.4,0-17.1-.011a4.812,4.812,0,0,1-1.326-.2c-3.066-.9-6.125-1.824-9.235-2.755-.085.189-.157.362-.24.53a3.992,3.992,0,0,1-3.681,2.423c-2.436.047-4.874.02-7.311.01a1.758,1.758,0,0,1-1.849-1.857q-.009-9.933,0-19.867a1.766,1.766,0,0,1,1.907-1.859c2.339-.006,4.678,0,7.016,0a4.121,4.121,0,0,1,3.76,2.118c.049.08.1.156.1.155,1.314-.574,2.548-1.24,3.859-1.663a12.68,12.68,0,0,1,9.414.613c1.428.651,2.81,1.4,4.226,2.078a2.3,2.3,0,0,0,.948.226c2.339.019,4.677.008,7.016.01a5.309,5.309,0,0,1,5.629,5.432c0,.054.018.108.04.236.184-.168.342-.3.486-.445,2.615-2.611,5.209-5.241,7.845-7.83a4.76,4.76,0,0,1,7.866,1.717c.1.293.185.594.278.891Zm-47.185,11.98c.133.052.237.1.347.136q4.848,1.454,9.7,2.9a2.261,2.261,0,0,0,.636.077q8.521.006,17.041,0a7.534,7.534,0,0,0,6.194-2.979q4.678-5.919,9.324-11.863a1.255,1.255,0,0,0,0-1.841,1.261,1.261,0,0,0-1.828.191c-.127.123-.25.25-.376.375q-4.732,4.732-9.462,9.466a2.131,2.131,0,0,1-1.538.754q-7.636,0-15.272,0a1.7,1.7,0,0,1-1.553-.9,1.757,1.757,0,0,1,1.621-2.629c3.42-.012,6.84,0,10.26,0a1.808,1.808,0,0,0,2.033-1.8,1.807,1.807,0,0,0-2.029-1.74c-2.574,0-5.149.013-7.724-.015a3.191,3.191,0,0,1-1.292-.307c-1.543-.731-3.053-1.531-4.594-2.266a9.642,9.642,0,0,0-6.261-.726,16.4,16.4,0,0,0-5.053,2.461c-.117.07-.167.331-.169.5-.014,1.3-.007,2.594-.007,3.891Zm-3.538-6.285h-6.1v9.4c1.762,0,3.487,0,5.213,0,.722,0,.882-.168.883-.914q0-4.006,0-8.011Zm-6.1-7.1V-28.9h6.1c0-.976.035-1.916-.025-2.851-.015-.225-.344-.61-.535-.615C-1836.079-32.414-1837.918-32.4-1839.779-32.4Z"
        transform="translate(1843.353 92.102)" fill="#26355d" />
    </g>
  </g>
</svg>