<svg xmlns="http://www.w3.org/2000/svg" viewBox="0 0 100.885 97.715">
    <g id="Group_60" data-name="Group 60" transform="translate(0)">
        <path id="Path_124" data-name="Path 124"
            d="M-1523.815,11.391c-.743,1.912-2.167,2.565-4.172,2.549-7.52-.059-15.04,0-22.56-.051a5.119,5.119,0,0,1-2.519-.627,3.555,3.555,0,0,1,.235-6.176c1.316-.734,2.72-1.311,4.026-2.06a2.172,2.172,0,0,0,.916-1.227c.368-1.451.6-2.936.916-4.528h-35.4c0-1.462,0-2.828,0-4.193a25.549,25.549,0,0,0-1.136-7.757,22.919,22.919,0,0,0-23.966-15.61,22.664,22.664,0,0,0-14.457,7.235c-.866.921-1.727,1.847-2.713,2.9V-77.2a13.191,13.191,0,0,1,7.257,1.237,21.14,21.14,0,0,1,4.4,3.1c7.747,7.244,15.423,14.565,23.122,21.86.167.157.337.311.589.544.227-.347.44-.658.638-.978q6.608-10.669,13.21-21.343a21.9,21.9,0,0,1,15.851-10.7c1.025-.162,2.07-.194,3.176-.292v3.23c-.874.092-1.779.152-2.674.286a17.933,17.933,0,0,0-12.838,8.091c-2.8,4.246-5.4,8.618-8.054,12.957a1.437,1.437,0,0,0-.052,1.143q2.485,5.73,5.07,11.415a1.642,1.642,0,0,0,1.043.821c4.527.766,9.064,1.48,13.6,2.179a1.146,1.146,0,0,0,.859-.261c4.776-4.74,9.533-9.5,14.389-14.351-5.567-2.374-6.9-6.914-6.339-12.422h-4.863v-3.262h4.731c.085-.675.124-1.259.238-1.829a9.792,9.792,0,0,1,9.858-7.955,9.549,9.549,0,0,1,9.361,8.692,66.567,66.567,0,0,1,.031,8.558,9.209,9.209,0,0,1-2.87,6.033,2.8,2.8,0,0,0,.371.225,11.675,11.675,0,0,1,7.575,9.311c.97,5.123,2.006,10.232,3.019,15.346a1.022,1.022,0,0,0,.135.258Zm-21.65-25.173c0-2.2.019-4.231-.007-6.261-.016-1.227-.414-1.677-1.664-1.909-4.221-.783-8.447-1.548-12.671-2.321q-3.136-.573-6.273-1.151v-9.522h15.969a10.839,10.839,0,0,0-7.2-4.875c-6.915-1.183-13.856-2.22-20.774-3.381-5.439-.914-10.868-1.817-16.42-1.5-.758.043-.947.245-1.046.993-.384,2.886-.816,5.77-1.355,8.63-.276,1.463-.818,2.876-1.252,4.351.365.127.67.236.975.341a25.882,25.882,0,0,1,16.312,15.558,1.37,1.37,0,0,0,1.524,1.072q16.444-.049,32.889-.022ZM-1621.4-26.012a26.2,26.2,0,0,1,19.917-5.374,40.759,40.759,0,0,0,2.768-13.295h-1.246c-4,0-8.006-.015-12.009.008a6.243,6.243,0,0,1-4.211-1.352.962.962,0,0,0-.5-.273c-1.561-.021-3.122-.012-4.721-.012Zm87.646-30.15c.525,2.946-.643,4.927-2.5,6.729-3.743,3.638-7.4,7.366-11.089,11.059-.228.228-.443.471-.515.547l2.8,6.085a44.234,44.234,0,0,0,17.243-3.953.955.955,0,0,0,.372-.82c-.949-4.892-1.91-9.783-2.93-14.661A8,8,0,0,0-1533.755-56.163Zm-2.586,26.81A142.188,142.188,0,0,1-1533.6,2.461h6.463v-34.7Zm-43.125,18.9.416,6.385h33.928v-6.385Zm42.613,12.922a137.936,137.936,0,0,0-2.73-31.354l-5.367.5c0,1.131-.026,2.179.02,3.223a1.02,1.02,0,0,0,.423.679,4.987,4.987,0,0,1,2.317,4.226c.165,5.35.307,10.7.461,16.05a3.337,3.337,0,0,1-1.409,2.884,1.36,1.36,0,0,0-.505.669c-.237,1.017-.409,2.049-.614,3.122Zm-54.6-50.4c-.2-.249-.252-.333-.323-.4q-12.049-11.406-24.119-22.791a12.73,12.73,0,0,0-2.854-1.89,18.313,18.313,0,0,0-2.69-.909c0,1.263-.03,2.275.024,3.282.011.212.3.448.512.605a28.675,28.675,0,0,1,2.981,2.2c3.849,3.763,7.69,7.538,11.418,11.42a65.8,65.8,0,0,0,9.5,8.083,1.745,1.745,0,0,0,.868.377C-1594.635-47.907-1593.134-47.928-1591.451-47.928Zm41.3,7.792c1.861-1.871,3.846-3.871,5.836-5.866,2.177-2.183,4.366-4.353,6.532-6.547a2.842,2.842,0,0,0,.767-3.152,2.868,2.868,0,0,0-2.478-1.966,3.121,3.121,0,0,0-2.7,1.123q-6.562,6.586-13.142,13.154a4.144,4.144,0,0,0-.335.408Zm1.936-30.536c0,1.224-.054,2.4.011,3.564a6.519,6.519,0,0,0,5.778,6.123,6.272,6.272,0,0,0,6.795-4.354,31.5,31.5,0,0,0,.567-5.332Zm-73.153,4.475v16.57h3.112c.2-4.744,2.812-6.7,6.986-6.465Zm73.216,40.729c-.088-1.791-.185-3.484-.25-5.179-.031-.793-.391-1.028-1.179-1.021-4.1.037-8.2.016-12.3.019-.287,0-.573.035-.965.06,0,.4,0,.751,0,1.1,0,2.308-.008,2.33,2.252,2.751C-1556.517-26.974-1552.426-26.243-1548.157-25.467Zm12.861-48.538a6.322,6.322,0,0,0-6.531-6.449c-3.523.041-6.6,3.163-6.3,6.449Zm-66.924,26.071c-1.718-1.592-3.365-3.126-5.028-4.644a.992.992,0,0,0-.607-.239c-1.607-.013-3.218-.063-4.821.028a2.35,2.35,0,0,0-2.234,2.52,2.341,2.341,0,0,0,2.339,2.32C-1609.132-47.9-1605.691-47.935-1602.219-47.935Zm75.055,58.531V5.763c-1.824,0-3.557.031-5.29-.014-.833-.021-1.469.048-1.915.933a3.363,3.363,0,0,1-1.407,1.165c-1.2.665-2.458,1.231-3.672,1.875a3.5,3.5,0,0,0-.7.672l.172.2Zm-55.242-65.926-4.575,7.393,8.482,1.392C-1579.83-49.535-1581.087-52.363-1582.406-55.329Zm39.089,65.955c-.163-2.944,2.11-3.661,4-4.752-1.8-.107-3.526-.12-5.255-.092a1.236,1.236,0,0,0-.631.351,21.532,21.532,0,0,1-2.225,1.841c-1.084.668-2.282,1.148-3.412,1.745a4.654,4.654,0,0,0-.8.771,7.472,7.472,0,0,0,.841.132C-1548.342,10.628-1545.887,10.626-1543.317,10.626Z"
            transform="translate(1624.7 83.774)" fill="#26355d"></path>
        <path id="Path_125" data-name="Path 125"
            d="M-1585.687,18.224a19.521,19.521,0,0,1-19.58,19.487,19.561,19.561,0,0,1-19.453-19.628,19.4,19.4,0,0,1,19.545-19.371A19.37,19.37,0,0,1-1585.687,18.224Zm-9.034-7.955L-1591.9,8.6l-3.735-3.723-1.649,2.82-2.792-1.606,1.6-2.886-5.153-1.321V5.1h-3.217V1.879l-5.077,1.346,1.609,2.865-2.787,1.6-1.744-2.9-3.823,3.7,2.993,1.772-1.615,2.794-2.847-1.624-1.366,5.105h3.221v3.3h-3.231l1.383,5.047,2.846-1.6,1.609,2.788-2.827,1.672,3.723,3.693,1.691-2.792,2.772,1.6-1.61,2.86,5.128,1.321V31.28h3.227v3.154l5.094-1.328-1.607-2.836,2.788-1.624,1.677,2.835,3.7-3.75-2.816-1.655,1.614-2.779,2.875,1.579,1.336-5.1h-3.233v-3.26h3.244l-1.375-5.045-2.852,1.576Z"
            transform="translate(1624.721 59.978)" fill="#26355d"></path>
        <path id="Path_126" data-name="Path 126"
            d="M-1592.458,22.791a8.128,8.128,0,0,1-8.167,8.108,8.145,8.145,0,0,1-8.061-8.218,8.14,8.14,0,0,1,8.121-8.061A8.131,8.131,0,0,1-1592.458,22.791Zm-8.148-4.9a4.888,4.888,0,0,0-4.853,4.9,4.882,4.882,0,0,0,4.925,4.825,4.886,4.886,0,0,0,4.852-4.9A4.884,4.884,0,0,0-1600.606,17.895Z"
            transform="translate(1620.095 55.388)" fill="#26355d"></path>
        <path id="Path_127" data-name="Path 127" d="M-1599.441,23.813h3.066v3.172h-3.066Z"
            transform="translate(1617.428 52.736)" fill="#26355d"></path>
    </g>
</svg>