<svg xmlns="http://www.w3.org/2000/svg" viewBox="0 0 130.768 104.271">
    <g id="Group_58" data-name="Group 58" transform="translate(0)">
        <path id="Path_114" data-name="Path 114"
            d="M-1740-127.852c.386-.541.765-1.086,1.157-1.622a38.2,38.2,0,0,0,6.8-17.116c.406-2.644,1.108-5.245,1.738-7.851.871-3.61,2.867-5.159,6.532-5.159q22.824,0,45.648.023a1.731,1.731,0,0,0,1.839-1.121c2.145-4.4,4.355-8.766,6.548-13.142,2.064-4.116,4.152-5.069,8.573-3.965q9.475,2.367,18.955,4.713c.283.071.557.177.924.3-.3,1.19-.579,2.327-.895,3.595-.674-.135-1.288-.233-1.889-.383q-9.348-2.326-18.693-4.668c-1.672-.418-2.328-.2-3.126,1.358-2.328,4.544-4.593,9.119-6.98,13.877l3.542.916a33.629,33.629,0,0,1,2.188-3.057,11.388,11.388,0,0,1,12.488-3.08,11.375,11.375,0,0,1,7.495,10.578c.013.813.2,1.152,1.049,1.363,9.708,2.389,19.4,4.834,29.1,7.261.2.051.416.059.742.1.044-.4.108-.755.119-1.113.138-4.516.278-9.031.4-13.547.067-2.559-.274-2.975-2.75-3.6-6.6-1.655-13.2-3.312-19.953-5.008l.916-3.715,7.343,1.837c4.374,1.095,8.721,2.314,13.129,3.246,3.83.81,5.225,3.656,5.155,6.859-.117,5.326-.311,10.651-.421,15.977a8.971,8.971,0,0,0,.367,2.623c.823,2.862,1.76,5.691,2.568,8.557a4.543,4.543,0,0,1,.047,2.215c-1.738,7.11-3.526,14.207-5.313,21.3-.921,3.66-3.762,5.369-7.449,4.491-1.655-.394-3.308-.8-4.952-1.24a5.74,5.74,0,0,1-4.368-7.319c.117-.49.229-.981.368-1.575l-29.243-7.3v1.453q0,7.992,0,15.983c-.007,4.274-2.3,6.573-6.536,6.588q-2.11.007-4.22,0c-4.192-.016-6.492-2.3-6.524-6.465,0-.337,0-.674,0-1.144h-16.727V-109.7h30.08v-9.542c-4.188,2.857-8.772,1.494-13.317,1.9V-125h-45.157v7.647c-4.605-.374-9.208.965-13.4-1.894v9.477h30.083v3.86h-16.716c0,.678.02,1.254,0,1.829a5.785,5.785,0,0,1-5.964,5.86c-1.32.032-2.647-.067-3.963.021-3.571.239-6.107-1.106-7.329-4.586Zm69.625-10.7c-1.175-5.244-2.278-10.313-3.462-15.364-.351-1.494-.989-1.85-2.609-1.85q-23.591,0-47.183,0c-1.989,0-2.536.4-3,2.353-.484,2.028-.9,4.071-1.353,6.108-.632,2.861-1.266,5.722-1.921,8.678h5.681c.094-.32.169-.564.239-.809a11.439,11.439,0,0,1,11.14-8.654,11.342,11.342,0,0,1,11.118,8.658c.273,1.007.831.88,1.488.88q14.129,0,28.258,0Zm42.12,12.519,1.858-7.518-41.21-10.283c.234,1.108.482,1.932.568,2.772.113,1.12.729,1.49,1.766,1.744,8.264,2.021,16.511,4.107,24.763,6.178,3.125.784,6.247,1.582,9.463,2.4l-.943,3.7-32.966-8.262c1.469,2.454,2.779,4.64,4.083,6.83.195.328.539.7.5,1.01-.174,1.372.783,1.441,1.7,1.669q18.2,4.536,36.4,9.094c1.711.428,3.428.829,5.209,1.258.772-3.125,1.5-6.067,2.278-9.218C-1619.668-122.887-1623.774-125.377-1628.256-126.028Zm-37.389-2.916c-1.012-1.7-1.941-3.165-2.767-4.685a1.871,1.871,0,0,0-1.906-1.1c-6.519.044-13.038.023-19.557.023q-20.069,0-40.138.01c-.441,0-1.116-.007-1.287.25-1.161,1.749-2.216,3.57-3.391,5.507Zm-4.295-25.352c.405,1.868.789,3.478,1.093,5.1a1.625,1.625,0,0,0,1.426,1.467q26.265,6.508,52.51,13.092a7.925,7.925,0,0,0,1,.114c-.543-1.788-1.11-3.4-1.5-5.049a1.933,1.933,0,0,0-1.691-1.574q-20.816-5.157-41.619-10.367C-1662.388-152.423-1666.054-153.331-1669.939-154.3Zm18.877.747a7.465,7.465,0,0,0-6.03-7.407c-3.252-.717-6.913,1.011-8.118,3.88Zm-69.05,14.911h14.576a7.446,7.446,0,0,0-7.631-5.608A7.34,7.34,0,0,0-1720.112-138.638Zm55.8,32.836h-9.339c-.334,3.149.193,3.751,3.207,3.751h3.187C-1664.508-102.052-1663.728-103.036-1664.311-105.8Zm46.3-5.878-9.3-2.306c-.179.739-.344,1.264-.428,1.8a1.879,1.879,0,0,0,1.507,2.406c1.757.481,3.525.929,5.3,1.322a1.909,1.909,0,0,0,2.484-1.551C-1618.3-110.491-1618.191-110.989-1618.013-111.68Zm-108.574,5.889h-9.573c0,.6-.018,1.108,0,1.614a1.93,1.93,0,0,0,2.05,2.106q2.736.084,5.477,0a1.908,1.908,0,0,0,2.037-1.986C-1726.553-104.6-1726.588-105.155-1726.588-105.791Zm112.78-24.6-8.851-2.21c-.325,1.318-.611,2.481-.894,3.627C-1618.539-127.149-1615.626-127.561-1613.808-130.394Zm-59.884,9.061c5.276.542,8.1-.615,9.012-3.659h-9.012ZM-1726.666-125h-8.933c.739,3.012,4.176,4.4,8.933,3.622Z"
            transform="translate(1740 202.445)" fill="#26355d"></path>
        <path id="Path_115" data-name="Path 115"
            d="M-1654.979-211.893c-.359,2.433-.686,4.6-1,6.777-.347,2.4-.739,4.8-.993,7.21-.1.951-.439,1.2-1.345,1.181-2.89-.051-5.779-.019-8.951-.019l8.384,11.992-3.13,2.209-12.667-18.1c3.513,0,6.778,0,10.042,0,1.065,0,2.132-.014,3.2.04.743.038,1.013-.214,1.117-.983.807-5.948,1.669-11.888,2.515-17.831.028-.2.065-.394.146-.883l13.711,14.415,11.464-8.263v12.151h-3.646v-4.781l-8.287,5.964Z"
            transform="translate(1712.283 220.294)" fill="#26355d"></path>
        <path id="Path_116" data-name="Path 116" d="M-1703.2-75.421v-3.645h37.325v3.645Z"
            transform="translate(1724.387 160.368)" fill="#26355d"></path>
        <path id="Path_117" data-name="Path 117" d="M-1536.787-143.071l-3.692-.925c.3-1.223.589-2.392.911-3.7l3.71.92Z"
            transform="translate(1655.339 189.488)" fill="#26355d"></path>
        <path id="Path_118" data-name="Path 118" d="M-1674.077-55.431v-3.634h3.714v3.634Z"
            transform="translate(1712.028 151.881)" fill="#26355d"></path>
        <path id="Path_119" data-name="Path 119" d="M-1549.708-146.3l-3.7-.914.923-3.687,3.7.9Z"
            transform="translate(1660.827 190.851)" fill="#26355d"></path>
        <path id="Path_120" data-name="Path 120" d="M-1647.752-128.715h-3.7v-3.678h3.7Z"
            transform="translate(1702.428 182.996)" fill="#26355d"></path>
        <path id="Path_121" data-name="Path 121" d="M-1638.129-128.736V-132.4h3.706v3.661Z"
            transform="translate(1696.774 182.998)" fill="#26355d"></path>
    </g>
</svg>