<svg xmlns="http://www.w3.org/2000/svg" viewBox="0 0 91.909 92.585">
    <g id="Group_57" data-name="Group 57" transform="matrix(1, 0.017, -0.017, 1, 1.593, -0.283)">
        <path id="Path_112" data-name="Path 112"
            d="M91.287,8.216a12.344,12.344,0,0,1-2.878,5.136Q82.05,21.384,75.748,29.461a17.033,17.033,0,0,1-14.162,6.924c-8.615-.016-17.23,0-25.844-.017a7.289,7.289,0,0,1-2-.307C29.1,34.7,24.478,33.3,19.778,31.9c-.128.286-.236.548-.362.8a6.034,6.034,0,0,1-5.563,3.663c-3.682.07-7.367.03-11.05.015a2.658,2.658,0,0,1-2.8-2.807q-.013-15.014,0-30.028A2.67,2.67,0,0,1,2.889.733c3.535-.01,7.07,0,10.606,0a6.229,6.229,0,0,1,5.682,3.2c.073.121.155.236.155.236,1.986-.869,3.85-1.874,5.832-2.513a19.163,19.163,0,0,1,14.229.927c2.158.983,4.247,2.115,6.386,3.141a3.484,3.484,0,0,0,1.433.342c3.535.028,7.07.013,10.606.016,5,0,8.326,3.221,8.507,8.211,0,.082.027.164.061.356.279-.254.517-.454.736-.672C71.073,10.025,75,6.049,78.978,2.137A7.2,7.2,0,0,1,90.868,4.731c.157.443.28.9.419,1.347ZM19.97,26.324c.2.08.358.157.524.206q7.328,2.2,14.66,4.382a3.451,3.451,0,0,0,.963.117q12.877.008,25.756,0a11.382,11.382,0,0,0,9.361-4.5Q78.305,17.583,85.327,8.6c.811-1.034.8-2.084,0-2.782a1.9,1.9,0,0,0-2.763.288c-.192.186-.379.378-.568.567q-7.152,7.152-14.3,14.307a3.221,3.221,0,0,1-2.326,1.14q-11.542,0-23.082,0a2.567,2.567,0,0,1-2.346-1.363,2.655,2.655,0,0,1,2.45-3.974c5.169-.018,10.338,0,15.507-.007,1.864,0,3.1-1.1,3.073-2.715-.026-1.583-1.24-2.629-3.066-2.63-3.892,0-7.783.02-11.675-.022a4.822,4.822,0,0,1-1.953-.463c-2.332-1.1-4.613-2.314-6.943-3.425a14.578,14.578,0,0,0-9.463-1.1c-2.869.592-5.2,2.253-7.637,3.72-.177.107-.252.5-.254.762-.021,1.961-.012,3.921-.012,5.881Zm-5.349-9.5H5.409V31.034c2.664,0,5.271,0,7.878,0,1.092,0,1.334-.254,1.335-1.382q0-6.053,0-12.107ZM5.4,6.087v5.281h9.216c0-1.475.053-2.9-.038-4.31-.022-.34-.518-.922-.809-.929C11,6.058,8.215,6.087,5.4,6.087Z"
            transform="translate(0 54.887)" fill="#26355d"></path>
        <path id="Path_113" data-name="Path 113"
            d="M42.452,0c.708.2,1.436.354,2.12.617A9.542,9.542,0,0,1,50.46,6.769c1.05,3.182,2.044,6.382,3.03,9.586a1.687,1.687,0,0,0,1.03,1.176,6.858,6.858,0,0,1,4.316,6.415c.079,2.731.061,5.467.006,8.2a6.827,6.827,0,0,1-3.717,6.169,1.227,1.227,0,0,0-.743,1.308c.049,1.365.033,2.733.01,4.1a6.226,6.226,0,0,1-6.2,6.184,34.357,34.357,0,0,1-4.363-.061,6.17,6.17,0,0,1-5.476-6.229c-.015-1.424,0-2.846,0-4.334H20.523q0,1.946,0,3.891c-.006,4.136-2.6,6.747-6.725,6.732a26.822,26.822,0,0,1-4.35-.174,6.063,6.063,0,0,1-4.963-5.925c-.029-1.455-.021-2.911,0-4.366A.974.974,0,0,0,3.9,38.4,6.939,6.939,0,0,1,.025,31.967c-.024-2.614-.042-5.229,0-7.843A6.913,6.913,0,0,1,4.439,17.5a1.508,1.508,0,0,0,.921-1.06c.933-3,1.914-5.989,2.828-9A9.777,9.777,0,0,1,16.194.125.851.851,0,0,0,16.423,0ZM29.529,22.283q-10.957,0-21.914,0c-1.634,0-2.245.619-2.246,2.27q-.006,3.563,0,7.125c0,1.536.638,2.189,2.15,2.189q21.914,0,43.828,0c1.514,0,2.154-.651,2.158-2.181.006-2.316,0-4.632,0-6.948,0-1.9-.545-2.456-2.419-2.456Zm18.534-5.376c-.884-2.8-1.726-5.485-2.579-8.164a4.448,4.448,0,0,0-4.638-3.394q-11.407-.006-22.815,0a4.439,4.439,0,0,0-4.64,3.39q-1.175,3.686-2.328,7.38c-.076.243-.131.492-.208.787ZM9.83,39.254c0,1.518-.054,2.966.042,4.406a1.272,1.272,0,0,0,.879.859,20.639,20.639,0,0,0,3.546,0,1.2,1.2,0,0,0,.829-.819c.087-1.465.039-2.939.039-4.445Zm33.873,0c0,1.5-.008,2.918,0,4.334a.878.878,0,0,0,.928.97,31.115,31.115,0,0,0,3.461-.033,1.278,1.278,0,0,0,.9-.834c.1-1.464.043-2.936.043-4.437Z"
            transform="translate(16.207 0)" fill="#26355d"></path>
    </g>
</svg>