<svg xmlns="http://www.w3.org/2000/svg" viewBox="0 0 80.62 107.473">
    <g id="Group_59" data-name="Group 59" transform="translate(0 1.002)">
        <path id="Path_122" data-name="Path 122"
            d="M-1808.765-110.978c-.376-.4-.616-.666-.869-.92-2.381-2.385-4.835-4.7-7.129-7.17a22.446,22.446,0,0,0-7.893-5.776,3.121,3.121,0,0,1-1.371-1.3c-1.939-3.394-3.819-6.823-5.708-10.246a1.893,1.893,0,0,1,.377-2.8c.66-.673,1.335-1.331,2-2a1.806,1.806,0,0,1,2.368-.348c3.576,1.986,7.163,3.953,10.717,5.979a2.755,2.755,0,0,1,1.1,1.271,21.908,21.908,0,0,0,5.7,7.814c2.468,2.293,4.791,4.742,7.159,7.141a5.565,5.565,0,0,1,.651,1.051c1.256-1.255,2.272-2.186,3.19-3.208a5.377,5.377,0,0,0,1.249-4.558,15.588,15.588,0,0,1,16.08-17.9,20.378,20.378,0,0,1,5.07,1.062c1.751.538,2.017,1.944.73,3.246-2.5,2.525-5,5.044-7.542,7.527a1.847,1.847,0,0,0-.5,1.627c.081,2.482,1.167,3.785,3.764,3.8a1.994,1.994,0,0,0,1.715-.515c2.433-2.488,4.906-4.935,7.374-7.387,1.456-1.447,2.716-1.165,3.446.753a15.654,15.654,0,0,1-16.771,21.021,5.7,5.7,0,0,0-5.241,1.713c-.78.807-1.6,1.577-2.462,2.43l2,1.87a9.487,9.487,0,0,1,1.022-1.346,5.251,5.251,0,0,1,6.426-.647,5.044,5.044,0,0,1,2.126,5.874,1.18,1.18,0,0,0,.407,1.391c3.24,3.219,6.509,6.409,9.68,9.7a8.66,8.66,0,0,1-4.071,14.494,8.4,8.4,0,0,1-8.373-2.371q-4.762-4.695-9.451-9.463a1.347,1.347,0,0,0-1.581-.427,5.094,5.094,0,0,1-5.845-2.229,5.117,5.117,0,0,1,.6-6.232,11.368,11.368,0,0,1,1.606-1.2l-1.819-1.823c-1.149,1.079-2.34,2.038-3.33,3.172a5.172,5.172,0,0,0-1.01,4.308,15.588,15.588,0,0,1-15.933,17.838,21.185,21.185,0,0,1-5.285-1.084c-1.673-.506-1.93-1.942-.693-3.193q3.746-3.788,7.539-7.53a1.476,1.476,0,0,0,.521-1.615c-.292-1.037-.19-2.418-.84-3.056s-2.017-.631-3.087-.761a1.927,1.927,0,0,0-1.4.433c-2.525,2.446-4.988,4.955-7.481,7.434-1.5,1.491-2.75,1.2-3.5-.8a15.659,15.659,0,0,1,16.875-20.941,5.689,5.689,0,0,0,5.147-1.693C-1810.5-109.394-1809.638-110.158-1808.765-110.978Zm29.2-29.325c-.771-.086-1.236-.168-1.7-.185a12.2,12.2,0,0,0-12.539,13.865,9.146,9.146,0,0,1-2.74,8.209q-6.118,6.108-12.228,12.223a9.2,9.2,0,0,1-8.218,2.734,12.161,12.161,0,0,0-13.578,9.536,8.844,8.844,0,0,0,.008,4.607c2.277-2.284,4.461-4.446,6.609-6.644a2.383,2.383,0,0,1,2.444-.743q2.54.58,5.112,1.012a2.229,2.229,0,0,1,2.04,2.045c.284,1.677.6,3.351,1,5a2.517,2.517,0,0,1-.8,2.631c-1.978,1.917-3.907,3.884-5.852,5.835-.213.214-.4.453-.7.8.68.07,1.18.154,1.682.169a12.19,12.19,0,0,0,12.444-13.854,9.253,9.253,0,0,1,2.808-8.289q6.055-6.018,12.074-12.07a9.27,9.27,0,0,1,8.292-2.819,12.146,12.146,0,0,0,13.334-8.589,10.116,10.116,0,0,0,.272-5.521c-.367.35-.629.59-.88.841-1.951,1.944-3.909,3.883-5.846,5.841a2.2,2.2,0,0,1-2.153.712c-1.807-.377-3.615-.75-5.431-1.082a2.139,2.139,0,0,1-1.9-1.92c-.29-1.639-.552-3.29-.973-4.9a2.77,2.77,0,0,1,.922-3C-1783.929-135.9-1781.859-138.019-1779.565-140.3Zm-10.055,48.2c3.378,3.429,6.742,6.983,10.268,10.369a5.011,5.011,0,0,0,6.912-.292,5.134,5.134,0,0,0,.377-7c-.938-1.1-2.014-2.084-3.036-3.112-2.427-2.438-4.859-4.87-7.237-7.253Zm-14.346-24.006c-2.929-2.918-5.793-5.894-8.8-8.723a20.139,20.139,0,0,1-5.1-7.049,2.41,2.41,0,0,0-.957-1.105c-2.73-1.563-5.487-3.08-8.253-4.581-.248-.135-.619-.044-.932-.058a2.526,2.526,0,0,0,.1.937c1.433,2.638,2.872,5.273,4.382,7.867a3.351,3.351,0,0,0,1.422,1.358,20.336,20.336,0,0,1,6.782,4.922c2.883,3.051,5.916,5.959,8.917,8.961Zm9.518,23.234a3.374,3.374,0,0,0,.966-.541q4.908-4.851,9.763-9.758a1.7,1.7,0,0,0,.041-2.443,1.651,1.651,0,0,0-2.433-.032c-3.328,3.281-6.619,6.6-9.92,9.908a1.519,1.519,0,0,0-.243.357C-1796.9-94.207-1796.072-92.851-1794.447-92.875Zm.474-13.117-2.338,2.305,1.508,1.552,2.305-2.3Z"
            transform="translate(1840.57 143.951)" fill="#26355d" stroke="#26355d" stroke-width="2"></path>
        <path id="Path_123" data-name="Path 123"
            d="M-1762.732-29.166a10.914,10.914,0,0,1-2.542,4.536q-5.616,7.093-11.182,14.225a15.045,15.045,0,0,1-12.507,6.116c-7.609-.015-15.217,0-22.825-.015a6.422,6.422,0,0,1-1.77-.272c-4.093-1.2-8.177-2.435-12.327-3.677-.113.252-.209.484-.32.708a5.329,5.329,0,0,1-4.913,3.234c-3.252.063-6.506.027-9.76.014a2.346,2.346,0,0,1-2.468-2.479q-.012-13.259,0-26.519a2.357,2.357,0,0,1,2.546-2.481c3.122-.008,6.244,0,9.366,0a5.5,5.5,0,0,1,5.018,2.827c.065.106.138.208.137.207,1.754-.767,3.4-1.655,5.151-2.219a16.925,16.925,0,0,1,12.566.818c1.906.869,3.751,1.868,5.641,2.774a3.076,3.076,0,0,0,1.266.3c3.122.025,6.243.011,9.365.014a7.086,7.086,0,0,1,7.514,7.251,3.158,3.158,0,0,0,.054.315c.246-.225.456-.4.649-.594,3.49-3.485,6.953-7,10.471-10.452a6.355,6.355,0,0,1,10.5,2.291c.138.391.248.793.371,1.189Zm-62.984,15.991c.177.07.317.138.463.182q6.472,1.941,12.947,3.87a3.021,3.021,0,0,0,.85.1q11.374.008,22.746,0a10.057,10.057,0,0,0,8.268-3.977q6.245-7.9,12.446-15.835a1.675,1.675,0,0,0,0-2.457,1.682,1.682,0,0,0-2.44.255c-.169.165-.334.333-.5.5q-6.316,6.316-12.629,12.635a2.845,2.845,0,0,1-2.054,1.007q-10.193,0-20.385,0a2.267,2.267,0,0,1-2.072-1.2,2.345,2.345,0,0,1,2.164-3.509c4.565-.016,9.13,0,13.695-.006a2.413,2.413,0,0,0,2.714-2.4,2.412,2.412,0,0,0-2.709-2.323c-3.437,0-6.874.018-10.31-.019a4.261,4.261,0,0,1-1.725-.409c-2.06-.975-4.075-2.044-6.131-3.025a12.871,12.871,0,0,0-8.357-.969c-2.535.523-4.6,1.99-6.745,3.285-.157.094-.223.442-.225.673-.018,1.731-.01,3.462-.01,5.194Zm-4.724-8.389h-8.137V-9.015c2.353,0,4.655,0,6.958,0,.964,0,1.177-.225,1.178-1.221q0-5.347,0-10.693Zm-8.142-9.484v4.664h8.139c0-1.3.047-2.558-.034-3.806-.02-.3-.458-.814-.714-.821C-1833.643-31.072-1836.1-31.047-1838.582-31.047Z"
            transform="translate(1843.353 110.745)" fill="#26355d"></path>
    </g>
</svg>