<?xml version="1.0" encoding="UTF-8"?>
<svg id="OBJECTS" xmlns="http://www.w3.org/2000/svg" xmlns:xlink="http://www.w3.org/1999/xlink">
  <defs>
    <style>
      .cls-1 {
        fill: url(#Degradado_sin_nombre_13);
      }

      .cls-1,
      .cls-2 {
        stroke-width: 0px;
      }

      .cls-2 {
        fill: #fff;
        fill-rule: evenodd;
      }
    </style>
    <linearGradient id="Degradado_sin_nombre_13" data-name="Degradado sin nombre 13" x1="20" y1="0" x2="20" y2="40"
      gradientUnits="userSpaceOnUse">
      <stop offset="0" stop-color="#4ac14b" />
      <stop offset="1" stop-color="#06853a" />
    </linearGradient>
  </defs>
  <rect class="cls-1" x="0" y="0" width="40" height="40" rx="9.52" ry="9.52" />
  <path class="cls-2"
    d="m33.64,19.65c0,7.34-5.99,13.29-13.39,13.29-2.35,0-4.55-.6-6.47-1.65l-7.41,2.36,2.42-7.13c-1.22-2-1.92-4.35-1.92-6.86,0-7.34,5.99-13.29,13.39-13.29s13.39,5.95,13.39,13.29h0Zm-13.39-11.17c-6.21,0-11.26,5.01-11.26,11.17,0,2.44.8,4.71,2.14,6.55l-1.41,4.15,4.33-1.37c1.78,1.17,3.91,1.85,6.19,1.85,6.21,0,11.26-5.01,11.26-11.17s-5.05-11.17-11.26-11.17h0Zm6.76,14.23c-.08-.14-.3-.22-.63-.38-.33-.16-1.94-.95-2.24-1.06-.3-.11-.52-.16-.74.16-.22.33-.85,1.06-1.04,1.28-.19.22-.38.24-.71.08-.33-.16-1.39-.51-2.64-1.62-.98-.86-1.63-1.93-1.83-2.26-.19-.33-.02-.5.14-.66.15-.15.33-.38.49-.57.16-.19.22-.33.33-.54.11-.22.05-.41-.03-.57-.08-.16-.74-1.77-1.01-2.42-.27-.65-.55-.63-.74-.63s-.55.06-.55.06c0,0-.66.08-.96.41-.3.33-1.15,1.11-1.15,2.72s1.18,3.15,1.34,3.37c.16.22,2.27,3.61,5.61,4.92,3.34,1.3,3.34.87,3.94.81.6-.05,1.94-.79,2.22-1.55.27-.76.27-1.41.19-1.55h0Zm0,0" />
</svg>